<svg width="244" height="244" fill="none" version="1.1" viewBox="0 0 244 244" xmlns="http://www.w3.org/2000/svg">
 <g transform="translate(1.3249e-5 -2)">
  <path d="m233.89 145.05-12.686-59.85c-0.112-0.5317-0.271-1.0525-0.476-1.5563-1.802-6.225-4.213-7.573-7.465-10.192-3.008-2.2577-4.302-3.1125-4.302-3.1125s-8.229 18.828-10.474 20.615c-22.009 17.535-58.883 44.858-67.897 49.789l-0.165 0.088c-2.963 1.791-6.316 2.85-9.777 3.091v90.076c7.696-0.199 15.213-2.35 21.832-6.247 9.954-5.48 36.431-26.544 67.465-51.51l12.166-9.776c8.085-6.455 11.967-12.866 11.878-19.628 0.025-0.597-9e-3 -1.195-0.099-1.786z" fill="#4d26bc"/>
  <path d="m112.71 141.95-70.106-51.551c-0.5848-0.4844-1.1055-1.041-1.5497-1.6566-0.062-1.6918-0.5738-3.3366-1.4829-4.7655s-2.1826-2.5903-3.6899-3.365l0.4475-10.267s-1.4624 0.9591-4.8018 2.9753c-4.2015 2.5177-7.3554 4.3595-9.5161 14.266l-1.6261 8.1087-10.193 50.941c-0.14187 0.717-0.20409 1.448-0.18552 2.179 0.24009 9.21 8.152 15.662 9.9636 17.013l79.949 61.426c5.9765 4.473 13.267 6.845 20.735 6.746v-89.642c-2.852 0.174-5.672-0.681-7.945-2.409z" fill="#2c0e83"/>
  <path d="m216.3 74.161c-0.139-0.0991-0.272-0.2059-0.4-0.3199-2.51-2.1074-52.069-35.913-81.386-55.872-3.88-2.6601-8.502-4.0469-13.216-3.9657-4.714 0.08113-9.284 1.6261-13.069 4.4181l-3.5884 2.6921c-6.2212 4.645-17.775 13.24-31.706 23.092-15.975 11.309-30.673 21.15-43.748 28.951-5.5546 3.31-10.687 12.258 3.3328 23.17 1.4776 1.1034 75.232 55.442 75.232 55.442 8.4656 6.189 18.486 5.638 28.429-0.089 9.676-5.307 43.937-30.782 65.545-47.784l5.488-4.3361c0.511-0.4082 0.978-0.8054 1.422-1.2026 9.232-7.5797 16.975-17.807 7.665-24.196z" fill="#7547f5"/>
 </g>
</svg>
