<svg width="1134" height="220" version="1.1" viewBox="0 0 1134 220" xmlns="http://www.w3.org/2000/svg">
 <g fill="#fff">
  <path d="m274 118.49c0 27.376 17.039 45.511 43.119 45.511 22.43 0 39.121-13.775 41.729-33.828h-21.386c-2.26 9.416-9.737 14.647-20.343 14.647-13.561 0-21.907-10.114-21.907-26.33 0-16.217 9.041-26.505 22.603-26.505 10.084 0 17.213 5.0567 19.647 14.822h21.212c-2.26-20.75-18.256-33.828-41.728-33.828-25.385 0-42.946 18.832-42.946 45.511z"/>
  <path d="m369.59 118.49c0 26.853 19.299 45.337 45.901 45.337s45.902-18.484 45.902-45.337c0-26.854-19.3-45.337-45.902-45.337s-45.901 18.484-45.901 45.337zm21.212 0c0-15.694 10.084-26.33 24.689-26.33s24.69 10.636 24.69 26.33c0 15.693-10.085 26.33-24.69 26.33s-24.689-10.637-24.689-26.33z"/>
  <path d="m513.51 164c13.04 0 24.167-5.754 29.383-15.694l1.391 13.427h19.474v-129.73h-21.038v54.579c-5.39-8.5443-15.996-13.601-27.993-13.601-25.907 0-41.555 19.181-41.555 46.034 0 26.679 15.474 44.988 40.338 44.988zm4.694-19.53c-14.779 0-23.82-10.811-23.82-26.156 0-15.344 9.041-26.33 23.82-26.33s24.342 10.811 24.342 26.33c0 15.52-9.563 26.156-24.342 26.156z"/>
  <path d="m624.28 164c22.429 0 38.077-11.334 41.728-30.166h-19.647c-2.434 8.195-10.085 12.729-21.734 12.729-14.083 0-22.081-7.673-23.646-22.843l64.679-0.174v-6.452c0-26.854-16.343-44.116-42.076-44.116-25.211 0-42.772 18.658-42.772 45.685 0 26.679 17.909 45.337 43.468 45.337zm-0.522-73.585c12.692 0 20.864 7.8468 20.864 19.704h-43.119c2.086-12.904 9.736-19.704 22.255-19.704z"/>
  <path d="m777.57 137.5v-19.529h-15.474v-83.699h-27.993l-57.55 83.699v19.529h64.505v24.238h21.038v-24.238h15.474zm-77.371-19.529 40.859-59.636v59.636h-40.859z"/>
  <path d="m848.94 75.244c-3.478-0.8719-6.433-1.2206-9.389-1.2206-11.475 0-19.647 5.7543-23.299 14.298l-1.217-12.555h-19.995v85.966h21.212v-41.849c0-16.74 9.563-24.936 24.864-24.936h7.824v-19.704z"/>
  <path d="m898.84 164c22.429 0 38.077-11.334 41.729-30.166h-19.648c-2.434 8.195-10.084 12.729-21.733 12.729-14.084 0-22.082-7.673-23.646-22.843l64.679-0.174v-6.452c0-26.854-16.344-44.116-42.076-44.116-25.211 0-42.772 18.658-42.772 45.685 0 26.679 17.908 45.337 43.467 45.337zm-0.522-73.585c12.693 0 20.865 7.8468 20.865 19.704h-43.12c2.087-12.904 9.737-19.704 22.255-19.704z"/>
  <path d="m978.41 161.73v-46.383c0-13.95 7.998-23.017 21.039-23.017 10.951 0 18.081 6.9749 18.081 21.448v47.952h21.21v-53.009c0-22.32-11.12-35.746-32.68-35.746-11.654 0-22.086 5.0567-27.476 13.775l-1.738-11.16h-19.648v86.14h21.212z"/>
  <path d="m1085.1 164c13.39 0 25.04-6.103 28.69-14.996l1.57 12.729h18.6v-52.312c0-23.889-14.26-36.443-37.38-36.443-23.3 0-38.6 12.206-38.6 30.863h18.08c0-9.0669 6.96-14.298 19.47-14.298 10.78 0 17.74 4.7081 17.74 16.391v1.918l-25.73 1.918c-20.35 1.57-31.82 11.509-31.82 27.377 0 16.216 11.13 26.853 29.38 26.853zm6.96-16.042c-9.57 0-14.78-3.836-14.78-11.683 0-6.975 5.04-11.334 18.25-12.555l17.91-1.395v4.534c0 13.252-8.34 21.099-21.38 21.099z"/>
 </g>
 <path d="m223.89 131.05-12.686-59.85c-0.112-0.5317-0.271-1.0525-0.476-1.5563-1.802-6.225-4.213-7.573-7.465-10.192-3.008-2.2577-4.302-3.1125-4.302-3.1125s-8.229 18.828-10.474 20.615c-22.009 17.535-58.883 44.858-67.897 49.789l-0.165 0.088c-2.963 1.791-6.316 2.85-9.777 3.091v90.076c7.696-0.199 15.213-2.35 21.832-6.247 9.954-5.48 36.431-26.544 67.465-51.51l12.166-9.776c8.085-6.455 11.967-12.866 11.878-19.628 0.025-0.597-9e-3 -1.195-0.099-1.786z" fill="#4D26BC"/>
 <path d="m102.71 127.95-70.106-51.551c-0.5848-0.4844-1.1055-1.041-1.5497-1.6566-0.062-1.6918-0.5738-3.3366-1.4829-4.7655s-2.1826-2.5903-3.6899-3.365l0.4475-10.267s-1.4624 0.9591-4.8018 2.9753c-4.2015 2.5177-7.3554 4.3595-9.5161 14.266l-1.6261 8.1087-10.193 50.941c-0.14187 0.717-0.20409 1.448-0.18552 2.179 0.24009 9.21 8.152 15.662 9.9636 17.013l79.949 61.426c5.9765 4.473 13.267 6.845 20.735 6.746v-89.642c-2.852 0.174-5.672-0.681-7.945-2.409z" fill="#2C0E83"/>
 <path d="m206.3 60.161c-0.139-0.0991-0.272-0.2059-0.4-0.3199-2.51-2.1074-52.069-35.913-81.386-55.872-3.88-2.6601-8.502-4.0469-13.216-3.9657s-9.284 1.6261-13.069 4.4181l-3.5884 2.6921c-6.2212 4.645-17.775 13.24-31.706 23.092-15.975 11.309-30.673 21.15-43.748 28.951-5.5546 3.31-10.687 12.258 3.3328 23.17 1.4776 1.1034 75.232 55.442 75.232 55.442 8.4656 6.189 18.486 5.638 28.429-0.089 9.676-5.307 43.937-30.782 65.545-47.784l5.488-4.3361c0.511-0.4082 0.978-0.8054 1.422-1.2026 9.232-7.5797 16.975-17.807 7.665-24.196z" fill="#7547F5"/>
</svg>
