<svg width="137.23" height="41.429" fill="none" version="1.1" xmlns="http://www.w3.org/2000/svg">
 <g transform="translate(-1.8527 -4.466)">
  <path d="m39.131 34.453c0 2.443-0.85 3.442-3.165 3.442h-20.542c-2.316 0-3.165-1-3.165-3.442v-4.757c0-2.294-1.105-3.59-2.167-4.184-0.31913-0.19347-0.31913-0.65653 0-0.85 1.105-0.701 2.167-2.167 2.167-4.121v-4.675c0-2.634 0.722-3.4 3.037-3.4h20.798c2.316 0 3.038 0.766 3.038 3.4v4.673c0 1.954 1.062 3.42 2.166 4.12 0.32 0.213 0.32 0.66 0 0.85-1.062 0.616-2.166 1.912-2.166 4.185v4.758z" clip-rule="evenodd" fill="#fff" fill-rule="evenodd"/>
  <text x="47.010559" y="30.753521" fill="#ffffff" font-family="Poppins" font-size="26.667px" font-weight="bold" letter-spacing="0px" word-spacing="0px" style="line-height:1.25" xml:space="preserve"><tspan x="47.010559" y="30.753521" font-size="18.667px">example</tspan></text>
  <text x="19.124939" y="31.132172" fill="#000000" font-family="Poppins" font-size="21.333px" font-weight="bold" letter-spacing="0px" word-spacing="0px" style="line-height:1.25" xml:space="preserve"><tspan x="19.124939" y="31.132172">e</tspan></text>
 </g>
</svg>
